:SAMPLES-PER-SECOND 24
:FULLY-SPECIFIED
:DEGREES
32
root  0.302686 38.1281 26.9504 7.83214 -28.7004 -1.7419
RightUpLeg  11.3785 -7.10698 -5.54041
RightLeg  11.5353 -18.1369 -4.08752
RightFoot  -17.5426 0.615511 13.5117
RightToes  -2.08645e-008 3.77894e-005 6.81332e-007
Spine  -8.32352 8.50825 10.709
Spine1  5.75444 10.1079 -11.6234
HEad  -20.9607 16.1456 -13.5323
LeftShoulder1  7.48897 -13.245 -38.5823
LeftArm  -6.02057 27.4104 -27.0713
LeftForeArm  151.048 -76.0624 -137.852
LeftHand  -0.226786 -3.43353 3.23492
RightShoulder  4.04603 6.89131 33.0361
RightArm  12.6822 4.82418 38.9421
RightForeArm  63.3833 78.0733 53.6962
RightHand  -0.763837 7.33042 -7.30875
LeftUpLeg  -30.2756 10.7552 7.36349
LeftLeg  10.0036 19.518 2.06007
LeftFoot  5.56106 0.888209 -6.20297
LeftToes  1.24767e-006 1.47042e-008 1.32732e-009
33
root  0.59473 38.0716 28.7786 7.58484 -25.9595 -1.61261
RightUpLeg  11.3254 -8.67538 -7.68226
RightLeg  17.6873 -16.2851 -5.85695
RightFoot  -15.0791 0.579723 21.5711
RightToes  -2.08645e-008 3.77894e-005 6.81332e-007
Spine  -10.6117 9.2379 10.8245
Spine1  6.40571 11.018 -12.8532
HEad  -19.6774 14.4074 -11.8419
LeftShoulder1  7.37416 -13.1089 -38.2715
LeftArm  -6.36177 27.7228 -27.0523
LeftForeArm  149.528 -76.4926 -136.149
LeftHand  -0.297092 -3.4615 4.1514
RightShoulder  4.04171 6.89224 32.9921
RightArm  10.1547 5.28327 37.7201
RightForeArm  55.2031 75.9374 41.9129
RightHand  -0.6602 7.54669 -6.27579
LeftUpLeg  -31.8421 11.6764 3.41967
LeftLeg  15.2011 13.7633 3.90773
LeftFoot  8.21514 0.339232 -2.22725
LeftToes  1.24767e-006 1.47042e-008 1.32732e-009
34
root  0.945804 38.1978 30.7238 6.25201 -21.8322 -0.980515
RightUpLeg  8.12689 -9.17705 -9.09441
RightLeg  31.5998 -19.5611 -13.0151
RightFoot  -5.82683 -1.03071 21.2916
RightToes  -2.08645e-008 3.77894e-005 6.81332e-007
Spine  -11.8554 9.46581 10.4351
Spine1  6.00182 11.501 -13.7695
HEad  -17.4613 11.8441 -9.00443
LeftShoulder1  7.22655 -12.934 -37.8631
LeftArm  -6.63985 27.176 -26.3737
LeftForeArm  147.899 -76.8221 -134.656
LeftHand  -0.276854 -3.20481 3.9791
RightShoulder  4.04721 6.88266 33.0809
RightArm  6.65612 2.81827 35.166
RightForeArm  45.0178 70.9469 28.487
RightHand  -0.610623 8.08258 -5.61314
LeftUpLeg  -30.6368 7.49416 1.15665
LeftLeg  18.8501 11.9748 4.90239
LeftFoot  6.69003 -0.203721 1.05637
LeftToes  1.24767e-006 1.47042e-008 1.32732e-009
35
root  1.2809 38.3688 32.3813 4.63641 -17.2897 -0.657913
RightUpLeg  0.489821 -6.98482 -8.22223
RightLeg  49.3251 -17.5926 -21.1187
RightFoot  9.071 -1.36814 8.53727
RightToes  -2.08645e-008 3.77894e-005 6.81332e-007
Spine  -11.4118 9.30216 9.47302
Spine1  4.63261 11.5992 -14.4209
HEad  -14.5211 8.84066 -5.99919
LeftShoulder1  7.1231 -12.7932 -37.6181
LeftArm  -6.65238 25.5302 -24.9623
LeftForeArm  147.161 -76.8647 -134.336
LeftHand  -0.26717 -2.86822 3.98514
RightShoulder  4.06882 6.87861 33.3031
RightArm  3.42052 -0.909084 32.4258
RightForeArm  32.9401 61.6594 17.9183
RightHand  -0.541498 8.53824 -4.886
LeftUpLeg  -27.8461 2.48559 -0.134748
LeftLeg  20.5821 12.6068 5.50237
LeftFoot  3.77893 -0.363086 2.56452
LeftToes  1.24767e-006 1.47042e-008 1.32732e-009
36
root  1.43921 38.4518 33.6229 2.59836 -12.2494 -0.289536
RightUpLeg  -9.00823 -3.78744 -5.9875
RightLeg  63.8673 -7.5956 -16.9519
RightFoot  14.3502 -0.234849 1.46622
RightToes  -2.08645e-008 3.77894e-005 6.81332e-007
Spine  -10.4762 8.18326 6.25636
Spine1  4.5686 10.7568 -13.7978
HEad  -12.2481 6.56221 -3.3189
LeftShoulder1  7.00989 -12.6597 -37.2903
LeftArm  -6.72774 22.4111 -23.5822
LeftForeArm  145.208 -77.1051 -132.996
LeftHand  -0.33765 -2.58258 5.13428
RightShoulder  4.11718 6.89446 33.7068
RightArm  0.805413 -3.57484 30.6369
RightForeArm  22.5645 48.8356 11.1443
RightHand  -0.561355 8.93671 -4.92431
LeftUpLeg  -24.7344 -0.230748 -1.73293
LeftLeg  21.5982 10.6092 4.91947
LeftFoot  1.64835 -0.322501 2.74438
LeftToes  1.24767e-006 1.47042e-008 1.32732e-009
37
root  1.36761 38.5681 34.6545 0.0783691 -5.63478 -0.217957
RightUpLeg  -19.2687 -3.4678 -3.50323
RightLeg  76.5169 -1.35625 -8.31537
RightFoot  7.32033 -0.402921 2.88087
RightToes  -2.08645e-008 3.77894e-005 6.81332e-007
Spine  -9.54848 5.67448 -0.202307
Spine1  6.12199 8.20232 -10.0326
HEad  -11.0956 5.22499 -0.553651
LeftShoulder1  7.06188 -12.7502 -37.3659
LeftArm  -6.74493 17.0189 -22.0279
LeftForeArm  140.132 -77.8875 -128.475
LeftHand  -0.411713 -2.49201 6.27852
RightShoulder  4.13806 6.86201 34.0305
RightArm  -0.540872 -5.84324 29.6979
RightForeArm  16.4017 35.7826 7.08013
RightHand  -0.648773 9.17063 -5.55097
LeftUpLeg  -21.0382 -1.82795 -2.87475
LeftLeg  22.1726 5.95425 2.99702
LeftFoot  -0.0263762 -0.24013 2.42393
LeftToes  1.24767e-006 1.47042e-008 1.32732e-009
38
root  1.18656 38.7924 35.5434 -3.18764 1.7326 -1.62352
RightUpLeg  -31.1668 -6.43371 -0.35331
RightLeg  85.8214 0.107362 -6.0028
RightFoot  0.491207 -0.583052 5.55986
RightToes  -2.08645e-008 3.77894e-005 6.81332e-007
Spine  -6.77153 2.58244 -6.66761
Spine1  7.41897 4.43812 -4.89943
HEad  -10.2037 4.77518 2.41524
LeftShoulder1  7.18358 -12.9237 -37.6376
LeftArm  -6.14576 9.61103 -20.635
LeftForeArm  133.158 -78.8823 -121.299
LeftHand  -0.446819 -2.60256 6.71021
RightShoulder  4.20677 6.8824 34.6079
RightArm  0.950992 -9.02773 28.8025
RightForeArm  11.4261 25.8121 4.80746
RightHand  -0.660355 8.79008 -5.77446
LeftUpLeg  -16.5511 -3.75805 -2.32785
LeftLeg  22.4984 1.49775 1.02437
LeftFoot  -1.03917 -0.206147 2.35808
LeftToes  1.24767e-006 1.47042e-008 1.32732e-009
39
root  1.00495 39.112 36.2076 -8.34056 8.26488 -5.3046
RightUpLeg  -43.5655 -9.47096 3.6685
RightLeg  90.2794 0.520737 -5.71767
RightFoot  -2.89737 -0.310443 3.83124
RightToes  -2.08645e-008 3.77894e-005 6.81332e-007
Spine  -0.223377 0.392945 -10.6102
Spine1  7.16413 0.536873 1.06935
HEad  -9.22148 4.93336 4.3368
LeftShoulder1  7.38739 -13.1407 -38.2654
LeftArm  -5.0348 1.61557 -19.9012
LeftForeArm  127.712 -79.5441 -115.005
LeftHand  -0.458613 -2.6042 6.87926
RightShoulder  4.24819 6.90191 34.9265
RightArm  -1.4862 -13.2245 27.3581
RightForeArm  12.9885 19.1952 5.69937
RightHand  -0.687164 8.7405 -6.01193
LeftUpLeg  -10.9475 -7.04578 0.278126
LeftLeg  22.8107 -0.850077 -0.057359
LeftFoot  -1.11966 -0.265662 3.04265
LeftToes  1.24767e-006 1.47042e-008 1.32732e-009
40
root  0.825795 39.3434 36.6621 -15.7368 12.9247 -10.6347
RightUpLeg  -54.4779 -11.1169 6.31594
RightLeg  89.6217 0.379405 -2.82863
RightFoot  -5.77697 -0.300595 5.37162
RightToes  -2.08645e-008 3.77894e-005 6.81332e-007
Spine  8.48837 -0.42535 -11.1021
Spine1  7.10251 -2.31777 6.10889
HEad  -8.87377 5.48934 5.44511
LeftShoulder1  7.44863 -13.2048 -38.4544
LeftArm  -4.05108 -6.23002 -20.5978
LeftForeArm  122.785 -79.9662 -109.484
LeftHand  -0.455232 -2.89728 6.60905
RightShoulder  4.29399 6.95084 35.1695
RightArm  -7.67673 -17.607 25.3199
RightForeArm  20.106 14.1555 7.70871
RightHand  -0.492456 9.12745 -4.3191
LeftUpLeg  -4.92819 -11.3967 3.76396
LeftLeg  24.6796 -1.30757 -0.32192
LeftFoot  -1.65971 -0.301883 3.68134
LeftToes  1.24767e-006 1.47042e-008 1.32732e-009
41
root  0.647155 39.5136 37.0396 -24.2306 16.1698 -17.0837
RightUpLeg  -63.6276 -13.3691 7.22531
RightLeg  84.9719 0.156445 -2.16623
RightFoot  -7.29105 -0.332903 7.92557
RightToes  -2.08645e-008 3.77894e-005 6.81332e-007
Spine  16.0739 -0.897305 -9.07346
Spine1  8.9401 -4.29557 9.75903
HEad  -9.20693 5.9028 6.59353
LeftShoulder1  7.35995 -13.1568 -38.0666
LeftArm  -2.81289 -14.0623 -22.678
LeftForeArm  115.838 -80.307 -102.465
LeftHand  -0.434661 -3.70206 5.81223
RightShoulder  4.35768 7.02219 35.4905
RightArm  -13.3445 -21.2113 23.2699
RightForeArm  26.7125 8.51846 8.80638
RightHand  -0.438505 9.27701 -3.85576
LeftUpLeg  0.577647 -15.639 7.66287
LeftLeg  27.7057 -1.41974 -0.471703
LeftFoot  -2.27988 -0.293744 3.87787
LeftToes  1.24767e-006 1.47042e-008 1.32732e-009
42
root  0.471435 39.6904 37.4081 -32.4401 18.0934 -23.8517
RightUpLeg  -71.37 -16.6774 7.04453
RightLeg  77.712 -0.838584 -5.90373
RightFoot  -8.34585 -0.218083 6.05732
RightToes  -2.08645e-008 3.77894e-005 6.81332e-007
Spine  21.6047 -1.41577 -6.45365
Spine1  11.5688 -5.9497 13.1417
HEad  -9.16072 5.81467 7.86482
LeftShoulder1  7.27949 -13.1361 -37.6541
LeftArm  -0.733287 -20.2915 -25.1407
LeftForeArm  114.546 -80.3553 -101.158
LeftHand  -0.427719 -4.18139 5.4637
RightShoulder  4.44707 7.09543 36.037
RightArm  -16.4799 -23.3046 21.5867
RightForeArm  31.1199 1.38497 7.75156
RightHand  -0.15427 10.0232 -1.56811
LeftUpLeg  4.371 -18.6672 12.1814
LeftLeg  31.4671 -2.1972 -1.10352
LeftFoot  -1.79946 -0.320736 3.9655
LeftToes  1.24767e-006 1.47042e-008 1.32732e-009
43
root  0.256547 39.83 37.9122 -39.2867 18.6 -29.2668
RightUpLeg  -77.4776 -19.8403 5.40809
RightLeg  68.3081 -2.793 -8.43573
RightFoot  -10.2119 -0.12457 5.71978
RightToes  -2.08645e-008 3.77894e-005 6.81332e-007
Spine  25.1013 -1.56818 -5.21015
Spine1  14.0863 -7.25244 16.1706
HEad  -8.4605 5.49704 9.60743
LeftShoulder1  7.15352 -13.0444 -37.152
LeftArm  1.40168 -23.3552 -27.2346
LeftForeArm  123.637 -79.9124 -110.359
LeftHand  -0.456029 -4.13369 5.83514
RightShoulder  4.61105 7.22462 37.0327
RightArm  -19.6681 -24.0927 20.1943
RightForeArm  35.5456 -5.67958 5.26064
RightHand  -0.017064 10.3966 -0.537043
LeftUpLeg  6.16498 -20.18 16.7998
LeftLeg  36.2106 -3.82546 -2.64982
LeftFoot  -0.291864 -0.341329 3.54274
LeftToes  1.24767e-006 1.47042e-008 1.32732e-009
